HIERARCHY
ROOT Hips
{
	OFFSET 0.000000 0.000000 0.000000
	CHANNELS 6 Xposition Yposition Zposition Zrotation Yrotation Xrotation 
	JOINT LHipJoint
	{
		OFFSET 0.000000 0.000000 0.000000
		CHANNELS 3 Zrotation Yrotation Xrotation
		JOINT LeftUpLeg
		{
			OFFSET 1.363060 -1.794630 0.839290
			CHANNELS 3 Zrotation Yrotation Xrotation
			JOINT LeftLeg
			{
				OFFSET 2.448110 -6.726130 0.000000
				CHANNELS 3 Zrotation Yrotation Xrotation
				JOINT LeftFoot
				{
					OFFSET 2.562200 -7.039590 0.000000
					CHANNELS 3 Zrotation Yrotation Xrotation
					JOINT LeftToeBase
					{
						OFFSET 0.157640 -0.433110 2.322550
						CHANNELS 3 Zrotation Yrotation Xrotation
						End Site
						{
							OFFSET 0.000000 0.000000 0.000000
						}
					}
				}
			}
		}
	}
	JOINT RHipJoint
	{
		OFFSET 0.000000 0.000000 0.000000
		CHANNELS 3 Zrotation Yrotation Xrotation
		JOINT RightUpLeg
		{
			OFFSET -1.305520 -1.794630 0.839290
			CHANNELS 3 Zrotation Yrotation Xrotation
			JOINT RightLeg
			{
				OFFSET -2.542530 -6.985550 0.000000
				CHANNELS 3 Zrotation Yrotation Xrotation
				JOINT RightFoot
				{
					OFFSET -2.568260 -7.056230 0.000000
					CHANNELS 3 Zrotation Yrotation Xrotation
					JOINT RightToeBase
					{
						OFFSET -0.164730 -0.452590 2.363150
						CHANNELS 3 Zrotation Yrotation Xrotation
						End Site
						{
							OFFSET 0.000000 0.000000 0.000000
						}
					}
				}
			}
		}
	}
	JOINT LowerBack
	{
		OFFSET 0.000000 0.000000 0.000000
		CHANNELS 3 Zrotation Yrotation Xrotation
		JOINT Spine
		{
			OFFSET 0.028270 2.035590 -0.193380
			CHANNELS 3 Zrotation Yrotation Xrotation
			JOINT Spine1
			{
				OFFSET 0.056720 2.048850 -0.042750
				CHANNELS 3 Zrotation Yrotation Xrotation
				JOINT Neck
				{
					OFFSET 0.000000 0.000000 0.000000
					CHANNELS 3 Zrotation Yrotation Xrotation
					JOINT Neck1
					{
						OFFSET -0.054170 1.746240 0.172020
						CHANNELS 3 Zrotation Yrotation Xrotation
						JOINT Head
						{
							OFFSET 0.104070 1.761360 -0.123970
							CHANNELS 3 Zrotation Yrotation Xrotation
							End Site
							{
								OFFSET 0.000000 0.000000 0.000000
							}
						}
					}
				}
				JOINT LeftShoulder
				{
					OFFSET 0.000000 0.000000 0.000000
					CHANNELS 3 Zrotation Yrotation Xrotation
					JOINT LeftArm
					{
						OFFSET 3.362410 1.200890 -0.311210
						CHANNELS 3 Zrotation Yrotation Xrotation
						JOINT LeftForeArm
						{
							OFFSET 4.983000 -0.000000 -0.000000
							CHANNELS 3 Zrotation Yrotation Xrotation
							JOINT LeftHand
							{
								OFFSET 3.483560 -0.000000 -0.000000
								CHANNELS 3 Zrotation Yrotation Xrotation
								JOINT LeftFingerBase
								{
									OFFSET 0.000000 0.000000 0.000000
									CHANNELS 3 Zrotation Yrotation Xrotation
									JOINT LeftHandIndex1
									{
										OFFSET 0.715260 -0.000000 -0.000000
										CHANNELS 3 Zrotation Yrotation Xrotation
										End Site
										{
											OFFSET 0.000000 0.000000 0.000000
										}
									}
								}
								JOINT LThumb
								{
									OFFSET 0.000000 0.000000 0.000000
									CHANNELS 3 Zrotation Yrotation Xrotation
									End Site
									{
										OFFSET 0.000000 0.000000 0.000000
									}
								}
							}
						}
					}
				}
				JOINT RightShoulder
				{
					OFFSET 0.000000 0.000000 0.000000
					CHANNELS 3 Zrotation Yrotation Xrotation
					JOINT RightArm
					{
						OFFSET -3.136600 1.374050 -0.404650
						CHANNELS 3 Zrotation Yrotation Xrotation
						JOINT RightForeArm
						{
							OFFSET -5.241900 -0.000000 -0.000000
							CHANNELS 3 Zrotation Yrotation Xrotation
							JOINT RightHand
							{
								OFFSET -3.444170 -0.000000 -0.000000
								CHANNELS 3 Zrotation Yrotation Xrotation
								JOINT RightFingerBase
								{
									OFFSET 0.000000 0.000000 0.000000
									CHANNELS 3 Zrotation Yrotation Xrotation
									JOINT RightHandIndex1
									{
										OFFSET -0.622530 -0.000000 -0.000000
										CHANNELS 3 Zrotation Yrotation Xrotation
										End Site
										{
											OFFSET 0.000000 0.000000 0.000000
										}
									}
								}
								JOINT RThumb
								{
									OFFSET 0.000000 0.000000 0.000000
									CHANNELS 3 Zrotation Yrotation Xrotation
									End Site
									{
										OFFSET 0.000000 0.000000 0.000000
									}
								}
							}
						}
					}
				}
			}
		}
	}
}
MOTION
Frames: 11
Frame Time: 0.033333
0.052553 16.676358 0.052553 2.865925 -19.901757 0.448371 3.891263 25.417069 9.373754 -30.424148 -13.072522 -7.241026 4.364604 -0.788102 28.372538 1.666129 -6.775661 6.911527 0.000000 0.000000 0.000000 -0.475621 -40.855090 -13.170369 52.141844 8.273949 -0.878303 -30.921461 -0.110554 39.415280 5.498059 1.005216 -18.966056 0.000000 0.000000 0.000000 -1.851004 5.586729 7.683446 -7.560921 4.353163 16.246216 6.774431 3.892307 -16.615066 12.404198 -1.098681 -10.808644 -2.872746 -0.267918 -7.436517 0.000000 0.000000 0.000000 -3.782561 13.722839 16.977656 -77.945376 -5.889673 -28.454459 -143.109048 -68.697865 178.490249 9.184060 -5.836064 -0.783190 9.375526 -5.717356 -0.000000 0.000000 0.000000 0.000000 0.000000 0.000000 0.000000 -1.024417 -15.141278 2.467247 57.853567 12.236335 18.646285 49.449158 61.563363 0.118095 0.719469 3.527329 0.059011 0.719459 3.528679 0.000000 0.000000 0.000000 0.000000 0.000000 0.000000 0.000000 
0.059045 16.704627 0.208426 2.575160 -19.679822 0.551413 4.430500 24.715117 8.610811 -30.894592 -12.531352 -6.179907 4.206857 -0.821424 27.959595 1.741170 -6.355754 7.981904 0.000000 0.000000 0.000000 -1.293423 -39.487581 -12.826818 51.008636 8.505332 -0.650212 -28.402341 0.041368 39.734034 4.018635 3.567811 -20.219984 0.000000 0.000000 0.000000 -1.764070 5.394560 8.284483 -7.384912 4.213691 14.933978 6.518337 3.785507 -15.638368 12.086701 -0.994690 -10.205605 -2.449017 -0.183625 -7.599167 0.000000 0.000000 0.000000 -3.378487 13.321430 17.163148 -78.152980 -6.037973 -28.527119 -143.136669 -68.856383 178.476057 9.382487 -5.994864 -0.790580 9.576896 -5.874577 -0.000000 0.000000 0.000000 0.000000 0.000000 0.000000 0.000000 -1.372020 -15.085156 2.317941 58.576478 12.551096 17.853218 50.362086 60.775262 0.094188 0.470747 2.521299 0.047091 0.471163 2.522166 0.000000 0.000000 0.000000 0.000000 0.000000 0.000000 0.000000 
0.067788 16.734715 0.363705 2.280798 -19.411633 0.655104 4.952990 23.992849 7.835432 -31.334509 -11.996314 -5.133849 4.047930 -0.861645 27.552531 1.819412 -5.939063 9.069332 0.000000 0.000000 0.000000 -2.106198 -38.039111 -12.499419 49.862635 8.660203 -0.401868 -25.866888 0.072463 39.769075 2.718536 5.905637 -21.525259 0.000000 0.000000 0.000000 -1.672096 5.187447 8.876803 -7.186342 4.063019 13.651960 6.257611 3.670081 -14.677752 11.765828 -0.894197 -9.620516 -2.030761 -0.101969 -7.734163 0.000000 0.000000 0.000000 -2.968705 12.922291 17.346474 -78.364547 -6.186062 -28.592039 -143.161492 -69.020594 178.461751 9.582600 -6.155668 -0.798031 9.780028 -6.033731 -0.000000 0.000000 0.000000 0.000000 0.000000 0.000000 0.000000 -1.734333 -15.044152 2.158908 59.286997 12.888869 17.038694 51.286891 59.921746 0.078457 0.212968 1.474570 0.039245 0.213888 1.475016 0.000000 0.000000 0.000000 0.000000 0.000000 0.000000 0.000000 
0.078732 16.766174 0.517988 1.792548 -18.335622 0.289216 5.674888 22.896162 7.144186 -31.657478 -11.393557 -3.678139 3.949926 -1.035111 27.177750 1.927607 -5.646862 10.213505 0.000000 0.000000 0.000000 -3.452591 -35.393284 -13.335118 48.295041 6.999762 1.213284 -22.565598 -0.953199 38.726792 1.929548 7.414092 -23.222026 0.000000 0.000000 0.000000 -1.338072 4.665216 10.063533 -6.827656 3.627994 12.453752 5.816850 3.309143 -13.893246 11.565994 -0.791570 -9.013279 -1.560229 -0.013404 -7.869259 0.000000 0.000000 0.000000 -2.385230 12.574746 17.541733 -78.564745 -6.263290 -28.665598 -143.109734 -69.167432 178.444320 9.794471 -6.320554 -0.807148 9.995376 -6.196538 -0.000000 0.000000 0.000000 0.000000 0.000000 0.000000 0.000000 -2.639102 -15.428961 1.627960 60.397787 14.040221 13.980429 54.285757 54.639211 0.066438 -0.256760 -0.317873 0.033236 -0.255526 -0.317995 0.000000 0.000000 0.000000 0.000000 0.000000 0.000000 0.000000 
0.091313 16.798598 0.670911 1.275594 -17.017933 -0.134520 6.354059 21.662333 6.404744 -31.911231 -10.799518 -2.178695 3.861415 -1.232804 26.825545 2.032120 -5.371672 11.377211 0.000000 0.000000 0.000000 -4.823685 -32.317921 -14.328882 46.579208 4.992199 3.059841 -19.022258 -2.173226 37.057645 1.378341 8.549544 -24.809188 0.000000 0.000000 0.000000 -0.950817 4.058741 11.304211 -6.447024 3.127701 11.318265 5.400194 2.893300 -13.226295 11.358426 -0.697196 -8.386120 -1.110381 0.068983 -7.952038 0.000000 0.000000 0.000000 -1.796118 12.219122 17.773115 -78.775386 -6.305123 -28.722617 -143.051882 -69.317186 178.427024 10.008321 -6.487879 -0.816201 10.212762 -6.361711 -0.000000 0.000000 0.000000 0.000000 0.000000 0.000000 0.000000 -3.544001 -15.929267 0.938501 61.332244 15.385586 10.923868 56.759465 48.551414 0.095431 -0.805904 -2.327291 0.047724 -0.805705 -2.327805 0.000000 0.000000 0.000000 0.000000 0.000000 0.000000 0.000000 
0.105551 16.831179 0.822228 0.881771 -16.014704 -0.315212 6.873565 20.554251 5.570812 -32.188242 -10.249967 -0.900860 3.736941 -1.372338 26.468849 2.123268 -5.033088 12.550313 0.000000 0.000000 0.000000 -5.825209 -29.668431 -14.756129 45.006598 3.786303 4.251859 -15.901131 -2.899608 35.445722 0.863132 9.681337 -26.035438 0.000000 0.000000 0.000000 -0.708155 3.575028 12.248439 -6.106734 2.746413 10.117257 4.999388 2.586926 -12.560586 11.027374 -0.551686 -7.594403 -0.468832 0.188059 -8.299862 0.000000 0.000000 0.000000 -1.217196 11.820779 18.055666 -78.987360 -6.357120 -28.766565 -143.036987 -69.481637 178.412658 10.208736 -6.651163 -0.823710 10.416390 -6.523093 -0.000000 0.000000 0.000000 0.000000 0.000000 0.000000 0.000000 -4.276831 -16.416649 0.141982 62.133563 16.691168 8.671086 58.552013 43.711401 0.317688 -2.126246 -7.437803 0.159165 -2.143503 -7.438124 0.000000 0.000000 0.000000 0.000000 0.000000 0.000000 0.000000 
0.121470 16.863914 0.972071 0.510683 -14.917863 -0.509547 7.331417 19.387664 4.711653 -32.426820 -9.714428 0.364206 3.614323 -1.517462 26.123586 2.212304 -4.696461 13.738404 0.000000 0.000000 0.000000 -6.741525 -26.861628 -15.202459 43.336859 2.468953 5.514533 -12.732077 -3.595050 33.444168 0.506405 10.558972 -27.103047 0.000000 0.000000 0.000000 -0.467211 3.073422 13.179731 -5.760379 2.353047 8.965438 4.626571 2.268406 -12.033761 10.686465 -0.415769 -6.750719 0.134221 0.298874 -8.578922 0.000000 0.000000 0.000000 -0.638505 11.384308 18.397284 -79.209346 -6.363109 -28.798251 -143.021249 -69.652961 178.398423 10.410331 -6.816344 -0.831155 10.621253 -6.686309 -0.000000 0.000000 0.000000 0.000000 0.000000 0.000000 0.000000 -4.978875 -16.978835 -0.876265 62.846424 18.175565 6.721999 59.900894 38.221020 0.731530 -3.376583 -12.760923 0.368318 -3.450321 -12.758932 0.000000 0.000000 0.000000 0.000000 0.000000 0.000000 0.000000 
0.138258 16.896447 1.120426 0.176899 -13.741112 -0.704601 7.715082 18.165491 3.824073 -32.632873 -9.194869 1.606429 3.492761 -1.664817 25.788373 2.299112 -4.359094 14.940283 0.000000 0.000000 0.000000 -7.543052 -23.938455 -15.641036 41.563270 1.086606 6.825905 -9.551727 -4.200384 31.096741 0.282067 11.201260 -27.986726 0.000000 0.000000 0.000000 -0.234572 2.581500 14.099780 -5.387139 1.975785 7.793663 4.209559 1.957828 -11.508191 10.166079 -0.198702 -5.707551 1.017169 0.471094 -9.234159 0.000000 0.000000 0.000000 -0.050388 10.827050 18.772097 -79.425137 -6.392401 -28.821611 -143.021187 -69.837964 178.384624 10.610426 -6.982665 -0.838372 10.824640 -6.850654 -0.000000 0.000000 0.000000 0.000000 0.000000 0.000000 0.000000 -5.551259 -17.606687 -2.021700 63.481318 19.647768 5.335625 60.947840 32.802144 1.068766 -3.974771 -16.074197 0.540374 -4.110072 -16.070035 0.000000 0.000000 0.000000 0.000000 0.000000 0.000000 0.000000 
0.155943 16.928505 1.267045 -0.109076 -12.509915 -0.898780 8.021080 16.901617 2.918277 -32.811676 -8.691701 2.818837 3.371263 -1.811405 25.460959 2.383920 -4.018799 16.154406 0.000000 0.000000 0.000000 -8.205242 -20.928241 -16.044856 39.680568 -0.321867 8.176191 -6.402082 -4.668456 28.455710 0.166201 11.626112 -28.672766 0.000000 0.000000 0.000000 -0.024163 2.092753 14.979949 -5.013781 1.603320 6.678910 3.820075 1.646458 -11.137337 9.644921 0.006845 -4.616256 1.834341 0.632979 -9.795726 0.000000 0.000000 0.000000 0.528046 10.215270 19.211614 -79.645711 -6.374258 -28.832763 -143.021161 -70.032122 178.370851 10.811529 -7.150618 -0.845580 11.029107 -7.016557 -0.000000 0.000000 0.000000 0.000000 0.000000 0.000000 0.000000 -6.085761 -18.295552 -3.399877 64.096227 21.278605 4.275178 61.768294 26.719574 1.446169 -4.417210 -19.385424 0.734810 -4.635397 -19.378964 0.000000 0.000000 0.000000 0.000000 0.000000 0.000000 0.000000 
0.172246 16.958629 1.410293 -0.303987 -11.506649 -0.916375 7.811005 16.233247 2.376162 -32.343687 -8.241482 3.061287 3.251006 -1.288948 25.487975 2.342700 -3.417052 16.249623 0.000000 0.000000 0.000000 -8.364693 -18.771982 -16.048631 37.381315 -1.944686 8.769723 -3.845021 -5.829252 26.028552 0.460363 10.752304 -28.897269 0.000000 0.000000 0.000000 0.251476 1.718086 15.118987 -4.864723 1.334931 6.489494 3.739343 1.395967 -10.889655 9.576340 -0.005698 -4.461085 1.797730 0.628591 -9.856181 0.000000 0.000000 0.000000 0.499480 9.845484 19.392185 -79.760885 -6.310433 -28.618592 -143.017745 -70.252168 178.392479 10.944769 -7.343868 -0.834256 11.161390 -7.210564 -0.000000 0.000000 0.000000 0.000000 0.000000 0.000000 0.000000 -6.148570 -18.441995 -3.340415 64.207851 21.166992 4.579750 62.768282 28.569700 1.228357 -3.997442 -17.783579 0.622602 -4.169240 -17.779151 0.000000 0.000000 0.000000 0.000000 0.000000 0.000000 0.000000 
0.188274 16.987875 1.551475 -0.433146 -10.518124 -0.901925 7.527922 15.558299 1.838206 -31.871353 -7.823209 3.260144 3.138434 -0.774273 25.526054 2.293357 -2.831320 16.315648 0.000000 0.000000 0.000000 -8.354583 -16.636757 -15.947790 34.942238 -3.499605 9.309185 -1.262633 -6.895548 23.573010 0.744396 9.802285 -28.999431 0.000000 0.000000 0.000000 0.477073 1.364966 15.191785 -4.730572 1.072660 6.311934 3.666699 1.146038 -10.631664 9.515574 -0.021768 -4.326349 1.738407 0.620134 -9.906483 0.000000 0.000000 0.000000 0.457513 9.459610 19.564496 -79.872378 -6.249841 -28.393312 -143.012308 -70.486433 178.415695 11.073519 -7.538445 -0.822107 11.289017 -7.405943 -0.000000 0.000000 0.000000 0.000000 0.000000 0.000000 0.000000 -6.196318 -18.569382 -3.242670 64.348496 20.979005 4.985012 63.711858 30.701197 1.000196 -3.529008 -15.878235 0.505598 -3.655443 -15.875623 0.000000 0.000000 0.000000 0.000000 0.000000 0.000000 0.000000 
